<?xml version="1.0" encoding="iso-8859-1"?>
<!-- Uploaded to: SVG Repo, www.svgrepo.com, Generator: SVG Repo Mixer Tools -->
<svg height="50px" width="50px" version="1.1" id="Layer_1" xmlns="http://www.w3.org/2000/svg" xmlns:xlink="http://www.w3.org/1999/xlink" 
	 viewBox="0 0 512 512" xml:space="preserve">
<path style="fill:#EC5565;" d="M0,256.006C0,397.402,114.606,512.004,255.996,512C397.394,512.004,512,397.402,512,256.006
	C512.009,114.61,397.394,0,255.996,0C114.606,0,0,114.614,0,256.006z"/>
<path style="fill:#D94453;" d="M508.689,297.02c-0.133-0.131-0.261-0.266-0.396-0.396c-0.499-0.512-1.004-1.018-1.517-1.517
	c-0.5-0.512-137.498-137.51-138.01-138.01c-14.743-15.135-35.303-24.577-58.053-24.577H201.286c-44.73,0-81.115,36.385-81.115,81.11
	v58.833c0,2.667,1.35,4.927,3.315,6.432c0.444,0.579,21.326,21.383,21.38,21.451v79.134h1.518l130.426,130.426v1.181
	C394.78,501.589,490.138,412.198,508.689,297.02z"/>
<path style="fill:#F4F6F9;" d="M310.714,132.521H201.286c-44.73,0-81.115,36.385-81.115,81.11v58.834
	c0,4.546,3.682,8.231,8.233,8.231h16.464v98.784h16.464v-98.784h16.464v65.856h16.464v-65.856h123.481v65.856h16.464v-65.856h16.464
	v98.784h16.464v-98.784h16.464c4.55,0,8.231-3.686,8.231-8.231v-58.834C391.828,168.905,355.443,132.521,310.714,132.521z
	 M375.364,264.233H136.636v-50.602c0-35.645,29.005-64.646,64.65-64.646h109.428c35.645,0,64.65,29.001,64.65,64.646v50.602H375.364
	z"/>
</svg>