<?xml version="1.0" encoding="iso-8859-1"?>
<!-- Uploaded to: SVG Repo, www.svgrepo.com, Generator: SVG Repo Mixer Tools -->
<svg height="50px" width="50px" version="1.1" id="Layer_1" xmlns="http://www.w3.org/2000/svg" xmlns:xlink="http://www.w3.org/1999/xlink" 
	 viewBox="0 0 512 512" xml:space="preserve">
<path style="fill:#AB91EA;" d="M512,256.006C512,397.402,397.394,512.004,256.004,512C114.606,512.004,0,397.402,0,256.006
	C-0.007,114.61,114.606,0,256.004,0C397.394,0,512,114.614,512,256.006z"/>
<path style="fill:#947ADB;" d="M510.733,281.469L379.554,150.206c-1.418-1.575-3.435-2.473-5.552-2.473H137.991
	c-2.117,0-4.134,0.897-5.553,2.473l-53.725,59.732c-1.969,2.195-2.468,5.339-1.269,8.036c0.533,1.198,1.391,2.164,2.402,2.914
	c0.435,0.58,41.461,41.563,41.753,41.842V356.8c0,2.459,1.263,4.531,3.092,5.89c0.436,0.588,148.039,148.19,148.626,148.626
	c0.01,0.013,0.025,0.021,0.034,0.034C398.191,502.992,498.514,405.216,510.733,281.469z"/>
<path style="fill:#F4F6F9;" d="M433.286,209.938l-53.732-59.733c-1.419-1.575-3.435-2.471-5.553-2.471h-236.01
	c-2.118,0-4.134,0.897-5.553,2.471l-53.725,59.733c-1.969,2.195-2.468,5.338-1.268,8.035c1.2,2.69,3.872,4.426,6.821,4.426H121.6
	v134.4c0,4.127,3.343,7.467,7.467,7.467c4.124,0,7.467-3.34,7.467-7.467v-134.4H166.4v67.2c0,4.127,3.343,7.467,7.467,7.467
	c4.124,0,7.467-3.34,7.467-7.467v-67.2h156.8v67.2c0,4.127,3.343,7.467,7.467,7.467c4.124,0,7.467-3.34,7.467-7.467v-67.2h29.867
	v134.4c0,4.127,3.343,7.467,7.467,7.467c4.124,0,7.467-3.34,7.467-7.467v-134.4h29.867c2.949,0,5.622-1.735,6.821-4.426
	C435.755,215.276,435.254,212.133,433.286,209.938z M101.023,207.467l40.293-44.8h229.359l40.298,44.8H101.023z"/>
</svg>