<?xml version="1.0" encoding="iso-8859-1"?>
<!-- Uploaded to: SVG Repo, www.svgrepo.com, Generator: SVG Repo Mixer Tools -->
<svg height="50px" width="50px" version="1.1" id="Layer_1" xmlns="http://www.w3.org/2000/svg" xmlns:xlink="http://www.w3.org/1999/xlink" 
	 viewBox="0 0 512 512" xml:space="preserve">
<path style="fill:#5D9BEB;" d="M512,256.006C512,397.402,397.394,512.004,256.004,512C114.606,512.004,0,397.402,0,256.006
	C-0.007,114.61,114.606,0,256.004,0C397.394,0,512,114.614,512,256.006z"/>
<path style="fill:#4988DB;" d="M512,256.005c0-7.376-0.383-14.66-0.995-21.878c-0.384-0.394-88.573-88.647-89.134-89.135
	c-29.363-27.202-99.15-41.653-165.871-41.653c-87.411,0-180.32,24.73-180.32,70.556c0,11.201,5.575,21.133,15.237,29.76
	c0.526,0.502,145.044,145.102,145.594,145.593c0.43,0.411,0.749,0.854,1.196,1.259c-0.347,0.78-2.748,3.09-3.61,3.203
	c-3.143,0.397-6.755-1.099-10.334-3.429c-0.367-0.517-0.857-0.87-1.315-1.27c-0.036-0.053-0.094-0.123-0.129-0.175
	c-0.382-0.553-0.903-0.919-1.387-1.342c-0.036-0.053-0.094-0.123-0.135-0.183c-3.215-4.653-8.806-7.385-11.996-11.948
	c-0.037-0.054-0.095-0.124-0.131-0.176c-0.38-0.553-0.905-0.922-1.388-1.344c-0.036-0.052-0.093-0.119-0.128-0.172
	c-2.459-3.559-7.321-4.479-10.896-2.036c-3.568,2.442-4.487,7.312-2.052,10.887c0.893,1.306,4.931,6.975,10.882,12.779
	c4.09,3.988,8.144,8.039,12.131,12.131c0.497,0.511,4.69,4.701,4.766,4.779c-9.689,9.017-24.244,17.536-46.007,20.858
	c-4.278,0.655-7.219,4.655-6.561,8.934c0.326,2.154,1.546,3.899,3.175,5.086c0.449,0.573,0.931,1.091,1.516,1.517
	c0.45,0.574,101.026,101.185,101.612,101.612c0.261,0.335,0.586,0.596,0.885,0.886C408.35,500.606,512,390.459,512,256.005z"/>
<path style="fill:#F4F6F9;" d="M263.404,244.395c85.173-1.353,172.916-25.956,172.916-70.499c0-45.826-92.909-70.556-180.32-70.556
	s-180.32,24.73-180.32,70.557c0,44.39,87.146,68.983,172.044,70.49v92.297c-0.19,0.509-0.37,1.001-0.588,1.543
	c-3.321,0.247-6.253,2.514-7.045,5.93c-0.029,0.118-0.95,3.67-3.505,8.778c-0.797,0.394-1.627,0.663-2.491,0.778
	c-9.095,1.149-22.103-12.981-26.942-20.041c-2.458-3.561-7.319-4.479-10.895-2.036c-3.568,2.443-4.486,7.312-2.052,10.887
	c1.723,2.517,14.981,21.27,31.557,25.904c-9.546,10.326-24.992,20.857-49.787,24.642c-4.279,0.655-7.22,4.655-6.561,8.934
	c0.59,3.882,3.927,6.657,7.741,6.657c0.39,0,0.788-0.027,1.195-0.089c41.73-6.375,61.444-29.135,70.331-44.956
	c2.481-2.052,4.772-4.662,6.883-7.791c2.11,3.129,4.401,5.74,6.883,7.791c8.886,15.822,28.599,38.58,70.331,44.956
	c0.405,0.061,0.804,0.089,1.195,0.089c3.812,0,7.151-2.775,7.741-6.657c0.658-4.279-2.282-8.281-6.561-8.934
	c-24.919-3.806-40.364-14.309-49.883-24.622c16.62-4.588,29.926-23.403,31.653-25.924c2.443-3.58,1.516-8.457-2.06-10.899
	c-3.561-2.443-8.445-1.52-10.895,2.055c-4.809,7.059-17.747,21.253-26.927,20.033c-0.892-0.116-1.747-0.405-2.57-0.82
	c-2.384-4.833-3.323-8.291-3.441-8.769c-0.805-3.394-3.729-5.636-7.036-5.89c-0.219-0.544-0.399-1.038-0.59-1.548v-92.289H263.404z
	 M91.36,173.897c0-25.955,67.613-54.876,164.64-54.876s164.64,28.922,164.64,54.876c0,25.813-66.886,54.533-163.042,54.854
	c-0.665-0.182-1.313-0.411-2.034-0.411c-0.695,0-1.318,0.226-1.959,0.396C157.884,228.256,91.36,199.636,91.36,173.897z"/>
</svg>